<svg width="24" height="24" viewBox="0 0 24 24" fill="none" xmlns="http://www.w3.org/2000/svg">
<g clip-path="url(#clip0_112_9137)">
<path d="M2.8252 4.64111V18.6411C2.8252 19.7411 3.7152 20.6411 4.8252 20.6411H18.8252C19.9252 20.6411 20.8252 19.7411 20.8252 18.6411V4.64111C20.8252 3.54111 19.9252 2.64111 18.8252 2.64111H4.8252C3.7152 2.64111 2.8252 3.54111 2.8252 4.64111ZM14.8252 8.64111C14.8252 10.3011 13.4852 11.6411 11.8252 11.6411C10.1652 11.6411 8.8252 10.3011 8.8252 8.64111C8.8252 6.98111 10.1652 5.64111 11.8252 5.64111C13.4852 5.64111 14.8252 6.98111 14.8252 8.64111ZM5.8252 16.6411C5.8252 14.6411 9.8252 13.5411 11.8252 13.5411C13.8252 13.5411 17.8252 14.6411 17.8252 16.6411V17.6411H5.8252V16.6411Z" fill="#202126"/>
</g>
<defs>
<clipPath id="clip0_112_9137">
<rect width="24" height="24" fill="white"/>
</clipPath>
</defs>
</svg>
