<svg width="24" height="24" viewBox="0 0 24 24" fill="none" xmlns="http://www.w3.org/2000/svg">
<path fill-rule="evenodd" clip-rule="evenodd" d="M5.20312 0.785256C4.91948 0.833771 4.4835 1.00777 4.22203 1.17676C3.69666 1.51632 3.32147 2.00644 3.11077 2.62833C3.02677 2.87635 3.02344 3.23288 3.02344 12.0033V21.1205L3.13181 21.4341C3.40612 22.2281 4.0252 22.8472 4.81922 23.1215L5.13281 23.2299H12C18.5756 23.2299 18.8782 23.2262 19.125 23.1426C19.963 22.8587 20.5875 22.2466 20.8682 21.4341L20.9766 21.1205V12.0033V2.88615L20.8682 2.57255C20.6695 1.99758 20.214 1.41891 19.74 1.13954C19.627 1.07297 19.395 0.964131 19.2244 0.897662L18.9141 0.776771L12.1172 0.770959C8.37891 0.767771 5.26758 0.774193 5.20312 0.785256ZM5.18522 1.55508C4.89375 1.62413 4.4685 1.87463 4.2615 2.09916C4.15627 2.21335 4.00336 2.44772 3.9218 2.6199L3.77344 2.93302V12.0058V21.0785L3.94852 21.4327C4.15936 21.8594 4.43077 22.1251 4.86656 22.3315L5.17969 22.4799H12H18.8203L19.1334 22.3315C19.5692 22.1251 19.8406 21.8594 20.0515 21.4327L20.2266 21.0785V12.0058V2.93302L20.0782 2.6199C19.8718 2.18415 19.606 1.91269 19.1794 1.70185L18.8252 1.52677L12.0962 1.51937C8.13581 1.51501 5.29233 1.52972 5.18522 1.55508ZM5.25 2.3146C5.01994 2.38712 4.62755 2.79343 4.557 3.03221C4.47703 3.30296 4.47703 6.45371 4.557 6.72446C4.63308 6.98194 5.02139 7.37026 5.27887 7.44633C5.55839 7.52893 18.4416 7.52893 18.7211 7.44633C18.9786 7.37026 19.3669 6.98194 19.443 6.72446C19.523 6.45371 19.523 3.30296 19.443 3.03221C19.3669 2.77472 18.9786 2.38641 18.7211 2.31033C18.4578 2.23252 5.49736 2.23665 5.25 2.3146ZM5.36508 3.11841L5.25 3.23344V4.87833V6.52322L5.36508 6.63826L5.48011 6.75333H12H18.5199L18.6349 6.63826L18.75 6.52322V4.87833V3.23344L18.6349 3.11841L18.5199 3.00333H12H5.48011L5.36508 3.11841ZM16.875 3.4396C16.6449 3.51212 16.2525 3.91843 16.182 4.15721C16.1506 4.26333 16.125 4.58785 16.125 4.87833C16.125 5.16882 16.1506 5.49333 16.182 5.59946C16.2581 5.85694 16.6464 6.24526 16.9039 6.32133C17.3434 6.45118 17.6938 6.35963 18.025 6.02837C18.3216 5.73183 18.375 5.55624 18.375 4.87833C18.375 4.20043 18.3216 4.02483 18.025 3.7283C17.6952 3.39849 17.3113 3.30211 16.875 3.4396ZM16.9901 4.24341C16.8817 4.35174 16.875 4.38886 16.875 4.87833C16.875 5.3678 16.8817 5.40493 16.9901 5.51326C17.0626 5.58582 17.1587 5.62833 17.25 5.62833C17.3413 5.62833 17.4374 5.58582 17.5099 5.51326C17.6183 5.40493 17.625 5.3678 17.625 4.87833C17.625 4.38886 17.6183 4.35174 17.5099 4.24341C17.4374 4.17085 17.3413 4.12833 17.25 4.12833C17.1587 4.12833 17.0626 4.17085 16.9901 4.24341ZM5.25 9.0646C5.01994 9.13712 4.62755 9.54343 4.557 9.78221C4.47984 10.0433 4.47984 11.7134 4.557 11.9745C4.63308 12.2319 5.02139 12.6203 5.27887 12.6963C5.5462 12.7753 7.9538 12.7753 8.22113 12.6963C8.47861 12.6203 8.86692 12.2319 8.943 11.9745C9.02016 11.7134 9.02016 10.0433 8.943 9.78221C8.86692 9.52472 8.47861 9.13641 8.22113 9.06033C7.96969 8.98604 5.48794 8.9896 5.25 9.0646ZM10.5 9.0646C10.2699 9.13712 9.87755 9.54343 9.807 9.78221C9.72984 10.0433 9.72984 11.7134 9.807 11.9745C9.88308 12.2319 10.2714 12.6203 10.5289 12.6963C10.7962 12.7753 13.2038 12.7753 13.4711 12.6963C13.5927 12.6604 13.7513 12.552 13.9 12.4034C14.0487 12.2547 14.1571 12.096 14.193 11.9745C14.2702 11.7134 14.2702 10.0433 14.193 9.78221C14.1169 9.52472 13.7286 9.13641 13.4711 9.06033C13.2197 8.98604 10.7379 8.9896 10.5 9.0646ZM15.75 9.0646C15.5199 9.13712 15.1275 9.54343 15.057 9.78221C15.0209 9.90441 15 10.3062 15 10.8783C15 11.4504 15.0209 11.8523 15.057 11.9745C15.1331 12.2319 15.5214 12.6203 15.7789 12.6963C16.0462 12.7753 18.4538 12.7753 18.7211 12.6963C18.8427 12.6604 19.0013 12.552 19.15 12.4034C19.2987 12.2547 19.4071 12.096 19.443 11.9745C19.5202 11.7134 19.5202 10.0433 19.443 9.78221C19.3669 9.52472 18.9786 9.13641 18.7211 9.06033C18.4697 8.98604 15.9879 8.9896 15.75 9.0646ZM5.36508 9.86841C5.25094 9.98251 5.25 9.99071 5.25 10.8783C5.25 11.766 5.25094 11.7742 5.36508 11.8883L5.48011 12.0033H6.75H8.01989L8.13492 11.8883C8.24906 11.7742 8.25 11.766 8.25 10.8783C8.25 9.99071 8.24906 9.98251 8.13492 9.86841L8.01989 9.75333H6.75H5.48011L5.36508 9.86841ZM10.6151 9.86841C10.5009 9.98251 10.5 9.99071 10.5 10.8783C10.5 11.766 10.5009 11.7742 10.6151 11.8883L10.7301 12.0033H12H13.2699L13.3849 11.8883C13.4991 11.7742 13.5 11.766 13.5 10.8783C13.5 9.99071 13.4991 9.98251 13.3849 9.86841L13.2699 9.75333H12H10.7301L10.6151 9.86841ZM15.8651 9.86841C15.7509 9.98251 15.75 9.99071 15.75 10.8783C15.75 11.766 15.7509 11.7742 15.8651 11.8883L15.9801 12.0033H17.25H18.5199L18.6349 11.8883C18.7491 11.7742 18.75 11.766 18.75 10.8783C18.75 9.99071 18.7491 9.98251 18.6349 9.86841L18.5199 9.75333H17.25H15.9801L15.8651 9.86841ZM5.25 13.5646C5.01994 13.6371 4.62755 14.0434 4.557 14.2822C4.47984 14.5433 4.47984 16.2134 4.557 16.4745C4.63308 16.7319 5.02139 17.1203 5.27887 17.1963C5.5462 17.2753 7.9538 17.2753 8.22113 17.1963C8.47861 17.1203 8.86692 16.7319 8.943 16.4745C9.02016 16.2134 9.02016 14.5433 8.943 14.2822C8.86692 14.0247 8.47861 13.6364 8.22113 13.5603C7.96969 13.486 5.48794 13.4896 5.25 13.5646ZM10.5 13.5646C10.2699 13.6371 9.87755 14.0434 9.807 14.2822C9.72984 14.5433 9.72984 16.2134 9.807 16.4745C9.88308 16.7319 10.2714 17.1203 10.5289 17.1963C10.7962 17.2753 13.2038 17.2753 13.4711 17.1963C13.5927 17.1604 13.7513 17.052 13.9 16.9034C14.0487 16.7547 14.1571 16.596 14.193 16.4745C14.2702 16.2134 14.2702 14.5433 14.193 14.2822C14.1169 14.0247 13.7286 13.6364 13.4711 13.5603C13.2197 13.486 10.7379 13.4896 10.5 13.5646ZM15.75 13.5646C15.5199 13.6371 15.1275 14.0434 15.057 14.2822C14.9753 14.5585 14.9753 20.6981 15.057 20.9745C15.1331 21.2319 15.5214 21.6203 15.7789 21.6963C16.0462 21.7753 18.4538 21.7753 18.7211 21.6963C18.9786 21.6203 19.3669 21.2319 19.443 20.9745C19.5247 20.6981 19.5247 14.5585 19.443 14.2822C19.3669 14.0247 18.9786 13.6364 18.7211 13.5603C18.4697 13.486 15.9879 13.4896 15.75 13.5646ZM5.36508 14.3684C5.25094 14.4825 5.25 14.4907 5.25 15.3783C5.25 16.266 5.25094 16.2742 5.36508 16.3883L5.48011 16.5033H6.75H8.01989L8.13492 16.3883C8.24906 16.2742 8.25 16.266 8.25 15.3783C8.25 14.4907 8.24906 14.4825 8.13492 14.3684L8.01989 14.2533H6.75H5.48011L5.36508 14.3684ZM10.6151 14.3684C10.5009 14.4825 10.5 14.4907 10.5 15.3783C10.5 16.266 10.5009 16.2742 10.6151 16.3883L10.7301 16.5033H12H13.2699L13.3849 16.3883C13.4991 16.2742 13.5 16.266 13.5 15.3783C13.5 14.4907 13.4991 14.4825 13.3849 14.3684L13.2699 14.2533H12H10.7301L10.6151 14.3684ZM15.8651 14.3684L15.75 14.4834V17.6283V20.7732L15.8651 20.8883L15.9801 21.0033H17.25H18.5199L18.6349 20.8883L18.75 20.7732V17.6283V14.4834L18.6349 14.3684L18.5199 14.2533H17.25H15.9801L15.8651 14.3684ZM5.25 18.0646C5.01994 18.1371 4.62755 18.5434 4.557 18.7822C4.47984 19.0433 4.47984 20.7134 4.557 20.9745C4.63308 21.2319 5.02139 21.6203 5.27887 21.6963C5.5462 21.7753 7.9538 21.7753 8.22113 21.6963C8.47861 21.6203 8.86692 21.2319 8.943 20.9745C9.02016 20.7134 9.02016 19.0433 8.943 18.7822C8.86692 18.5247 8.47861 18.1364 8.22113 18.0603C7.96969 17.986 5.48794 17.9896 5.25 18.0646ZM10.5 18.0646C10.2699 18.1371 9.87755 18.5434 9.807 18.7822C9.72984 19.0433 9.72984 20.7134 9.807 20.9745C9.88308 21.2319 10.2714 21.6203 10.5289 21.6963C10.7962 21.7753 13.2038 21.7753 13.4711 21.6963C13.5927 21.6604 13.7513 21.552 13.9 21.4034C14.0487 21.2547 14.1571 21.096 14.193 20.9745C14.2702 20.7134 14.2702 19.0433 14.193 18.7822C14.1169 18.5247 13.7286 18.1364 13.4711 18.0603C13.2197 17.986 10.7379 17.9896 10.5 18.0646ZM5.36508 18.8684C5.25094 18.9825 5.25 18.9907 5.25 19.8783C5.25 20.766 5.25094 20.7742 5.36508 20.8883L5.48011 21.0033H6.75H8.01989L8.13492 20.8883C8.24906 20.7742 8.25 20.766 8.25 19.8783C8.25 18.9907 8.24906 18.9825 8.13492 18.8684L8.01989 18.7533H6.75H5.48011L5.36508 18.8684ZM10.6151 18.8684C10.5009 18.9825 10.5 18.9907 10.5 19.8783C10.5 20.766 10.5009 20.7742 10.6151 20.8883L10.7301 21.0033H12H13.2699L13.3849 20.8883C13.4991 20.7742 13.5 20.766 13.5 19.8783C13.5 18.9907 13.4991 18.9825 13.3849 18.8684L13.2699 18.7533H12H10.7301L10.6151 18.8684Z" fill="#202126"/>
</svg>
