<svg width="24" height="24" viewBox="0 0 24 24" fill="none" xmlns="http://www.w3.org/2000/svg">
<g clip-path="url(#clip0_14_4930)">
<path fill-rule="evenodd" clip-rule="evenodd" d="M7.44952 0.137016L7.3125 0.274031V1.68389V3.09375H6.74639C6.18319 3.09375 6.17958 3.09445 6.04327 3.23077L5.90625 3.36778V6.04327V8.71875H4.89844H3.89062V6.74639V4.77403L3.75361 4.63702C3.56067 4.44408 3.28308 4.44408 3.09014 4.63702L2.95312 4.77403V6.74639V8.71875H2.38702C1.82381 8.71875 1.8202 8.71945 1.68389 8.85577L1.54688 8.99278V13.7767V18.5607L1.41797 18.5869C0.750797 18.7223 0.148734 18.9905 0.0562969 19.1933C0.0150469 19.2839 0 19.9058 0 21.5214V23.726L0.137016 23.863L0.274031 24H12.0026H23.7311L23.889 23.8326L24.0469 23.6652V21.4392C24.0469 20.0823 24.0299 19.2237 24.0034 19.2401C23.9795 19.2549 23.9462 19.224 23.9295 19.1714C23.8756 19.0015 23.2167 18.7157 22.582 18.5869L22.4531 18.5607V13.7767V8.99278L22.3161 8.85577L22.1791 8.71875H19.875H17.5709L17.4339 8.85577L17.2969 8.99278V10.9651V12.9375H15.5859H13.875V8.15264V3.36778L13.738 3.23077C13.6017 3.09445 13.5981 3.09375 13.0349 3.09375H12.4688V1.68389V0.274031L12.3317 0.137016L12.1947 0H9.89062H7.58653L7.44952 0.137016ZM20.1562 0.313453C19.4457 0.431156 18.6464 0.899672 18.1866 1.46789C17.7118 2.05477 17.4897 2.63161 17.4508 3.37955C17.38 4.73892 18.0795 5.93175 19.2891 6.51412C21.4727 7.56548 24 5.98209 24 3.5625C24 1.73142 22.5104 0.259406 20.6861 0.287625C20.4591 0.291141 20.2207 0.302766 20.1562 0.313453ZM8.25 2.01562V3.09375H9.89062H11.5312V2.01562V0.9375H9.89062H8.25V2.01562ZM20.2155 1.28972C19.0475 1.54345 18.2371 2.71448 18.4155 3.89062C18.6102 5.17387 19.8292 6.07355 21.0853 5.86097C22.0862 5.69161 22.8697 4.8945 23.022 3.89062C23.2021 2.70295 22.3877 1.53928 21.2002 1.28761C20.815 1.206 20.5987 1.20647 20.2155 1.28972ZM6.84408 10.9102L6.84441 17.7891L7.01217 17.9033C7.10447 17.9662 7.29089 18.1402 7.4265 18.2901C7.66866 18.5577 7.67756 18.5625 7.92637 18.5633C8.8658 18.5663 9.88809 19.1367 10.4579 19.9757L10.6383 20.2415L10.9793 20.1239C11.4219 19.9712 12.2103 19.9258 12.6445 20.0279L12.9375 20.0968V12.064V4.03125H9.89062H6.84375L6.84408 10.9102ZM8.85577 6.04327C8.74833 6.15075 8.71875 6.22228 8.71875 6.375C8.71875 6.52772 8.74833 6.59925 8.85577 6.70673L8.99278 6.84375H9.89062H10.7885L10.9255 6.70673C11.0329 6.59925 11.0625 6.52772 11.0625 6.375C11.0625 6.22228 11.0329 6.15075 10.9255 6.04327L10.7885 5.90625H9.89062H8.99278L8.85577 6.04327ZM8.85577 8.85577C8.74833 8.96325 8.71875 9.03478 8.71875 9.1875C8.71875 9.34022 8.74833 9.41175 8.85577 9.51923L8.99278 9.65625H9.89062H10.7885L10.9255 9.51923C11.0329 9.41175 11.0625 9.34022 11.0625 9.1875C11.0625 9.03478 11.0329 8.96325 10.9255 8.85577L10.7885 8.71875H9.89062H8.99278L8.85577 8.85577ZM2.48438 10.5938V11.5312H3.05048C3.61369 11.5312 3.6173 11.532 3.75361 11.6683C3.94655 11.8612 3.94655 12.1388 3.75361 12.3317C3.6173 12.468 3.61369 12.4688 3.05048 12.4688H2.48438V13.4062V14.3438H3.05048C3.61369 14.3438 3.6173 14.3445 3.75361 14.4808C3.94655 14.6737 3.94655 14.9513 3.75361 15.1442C3.6173 15.2805 3.61369 15.2812 3.05048 15.2812H2.48438V16.7205V18.1597L2.66016 17.9907C3.41798 17.2622 4.68197 16.9759 5.80078 17.2792L5.90625 17.3078V13.482V9.65625H4.19531H2.48438V10.5938ZM18.2344 13.4703V17.2843L18.5273 17.2157C18.9781 17.11 19.7044 17.1561 20.1962 17.3214C20.6191 17.4637 21.0599 17.7216 21.3398 17.9907L21.5156 18.1597V16.7205V15.2812H20.9495C20.3863 15.2812 20.3827 15.2805 20.2464 15.1442C20.139 15.0367 20.1094 14.9652 20.1094 14.8125C20.1094 14.6598 20.139 14.5883 20.2464 14.4808C20.3827 14.3445 20.3863 14.3438 20.9495 14.3438H21.5156V13.4062V12.4688H20.9495C20.3863 12.4688 20.3827 12.468 20.2464 12.3317C20.139 12.2242 20.1094 12.1527 20.1094 12C20.1094 11.8473 20.139 11.7758 20.2464 11.6683C20.3827 11.532 20.3863 11.5312 20.9495 11.5312H21.5156V10.5938V9.65625H19.875H18.2344V13.4703ZM8.85577 11.6683C8.74833 11.7758 8.71875 11.8473 8.71875 12C8.71875 12.1527 8.74833 12.2242 8.85577 12.3317L8.99278 12.4688H9.89062H10.7885L10.9255 12.3317C11.0329 12.2242 11.0625 12.1527 11.0625 12C11.0625 11.8473 11.0329 11.7758 10.9255 11.6683L10.7885 11.5312H9.89062H8.99278L8.85577 11.6683ZM13.875 16.7398V19.6047L14.0526 19.4442C14.6459 18.9083 15.4842 18.5625 16.1904 18.5625H16.4482L16.8726 18.1329L17.2969 17.7033V15.7891V13.875H15.5859H13.875V16.7398ZM8.85577 14.4808C8.74833 14.5883 8.71875 14.6598 8.71875 14.8125C8.71875 14.9652 8.74833 15.0367 8.85577 15.1442L8.99278 15.2812H9.89062H10.7885L10.9255 15.1442C11.0329 15.0367 11.0625 14.9652 11.0625 14.8125C11.0625 14.6598 11.0329 14.5883 10.9255 14.4808L10.7885 14.3438H9.89062H8.99278L8.85577 14.4808ZM4.38281 18.1486C3.81131 18.2568 3.23461 18.6562 2.88112 19.1886C2.78695 19.3305 2.67497 19.4626 2.63227 19.4824C2.58961 19.5021 2.32266 19.5211 2.03906 19.5246C1.69903 19.5287 1.42364 19.5597 1.23047 19.6154L0.9375 19.6999V21.3812V23.0625H12H23.0625V21.3812V19.6999L22.7695 19.616C22.5676 19.5582 22.3309 19.5337 22.0078 19.5371C21.75 19.5399 21.4828 19.5203 21.4141 19.4936C21.3454 19.4669 21.2123 19.3293 21.1184 19.1878C20.7344 18.6095 20.1622 18.238 19.4964 18.1349C18.6188 17.9989 17.7467 18.4026 17.227 19.1854C17.1339 19.3256 17.0051 19.4642 16.9408 19.4935C16.8764 19.5229 16.616 19.5469 16.3621 19.5469C16.0341 19.5469 15.8133 19.5738 15.5992 19.6399C14.9862 19.8292 14.3942 20.341 14.0905 20.944C13.8366 21.4483 13.7105 21.4788 13.0799 21.1883C12.3016 20.8298 11.6279 20.8313 10.9287 21.1932C10.5735 21.377 10.3403 21.4183 10.1707 21.3275C10.1218 21.3014 9.98662 21.0955 9.87014 20.8701C9.40303 19.9656 8.72344 19.5327 7.78125 19.5395C7.53633 19.5413 7.2787 19.5203 7.20872 19.493C7.13873 19.4655 7.01522 19.3399 6.93422 19.2136C6.61162 18.7109 5.98898 18.3065 5.31895 18.1646C4.95352 18.0872 4.72762 18.0833 4.38281 18.1486ZM0.0216563 21.4922C0.0217031 22.7297 0.02775 23.2292 0.0351094 22.6022C0.0425156 21.9752 0.0425156 20.9627 0.0351094 20.3522C0.0277031 19.7417 0.0216563 20.2547 0.0216563 21.4922Z" fill="#202126"/>
</g>
<defs>
<clipPath id="clip0_14_4930">
<rect width="24" height="24" fill="white"/>
</clipPath>
</defs>
</svg>
