<svg width="24" height="24" viewBox="0 0 24 24" fill="none" xmlns="http://www.w3.org/2000/svg">
<g clip-path="url(#clip0_73_5365)">
<path d="M16.7749 16.5908C16.3844 16.9814 15.7513 16.9814 15.3607 16.5908L11.8252 13.0553L8.28966 16.5908C7.89914 16.9814 7.26597 16.9814 6.87545 16.5908C6.48492 16.2003 6.48492 15.5672 6.87545 15.1766L10.411 11.6411L6.87545 8.10557C6.48492 7.71504 6.48492 7.08188 6.87545 6.69136C7.26597 6.30083 7.89914 6.30083 8.28966 6.69136L11.8252 10.2269L15.3607 6.69136C15.7513 6.30083 16.3844 6.30083 16.7749 6.69136C17.1655 7.08188 17.1655 7.71504 16.7749 8.10557L13.2394 11.6411L16.7749 15.1766C17.1655 15.5672 17.1655 16.2003 16.7749 16.5908Z" fill="#202126"/>
</g>
<defs>
<clipPath id="clip0_73_5365">
<rect width="24" height="24" fill="white"/>
</clipPath>
</defs>
</svg>
