<svg width="24" height="24" viewBox="0 0 24 24" fill="none" xmlns="http://www.w3.org/2000/svg">
<g clip-path="url(#clip0_14_5171)">
<path fill-rule="evenodd" clip-rule="evenodd" d="M10.8048 0.990943C7.42551 1.28316 4.18954 2.87447 2.23935 5.20313C0.845615 6.86733 0.0997871 8.74608 0.0155527 10.8047C-0.0713067 12.9286 0.624365 15.0428 1.98032 16.7756L2.21427 17.0746L1.57593 19.5442C1.22483 20.9026 0.937584 22.0628 0.937584 22.1226C0.937584 22.6161 1.39199 23.0625 1.8943 23.0625C1.96335 23.0625 3.47821 22.5862 5.26072 22.004L8.50157 20.9455L9.09069 21.0676C10.8 21.4219 12.5594 21.4614 14.2501 21.1832C17.8461 20.5917 20.9337 18.6439 22.6465 15.8864C23.3285 14.7885 23.8486 13.2755 23.9387 12.1273C23.9545 11.9266 23.9853 11.7513 24.0072 11.7378C24.0291 11.7243 24.0466 11.4244 24.0463 11.0715C24.0457 10.6398 24.0306 10.4527 24.0001 10.5C23.9671 10.551 23.9544 10.5109 23.9539 10.3538C23.9531 10.088 23.8428 9.43201 23.7147 8.92969C23.5573 8.31268 23.398 7.88476 23.0868 7.24219C22.2918 5.60091 21.0721 4.23704 19.4156 3.13721C16.9491 1.49954 13.8516 0.727459 10.8048 0.990943ZM11.1095 2.84321C9.49733 2.99771 8.17705 3.34772 6.91246 3.95583C4.29543 5.21429 2.54863 7.30055 2.00629 9.81544C1.85746 10.5056 1.85919 11.814 2.00985 12.5156C2.28158 13.7813 2.86007 14.9398 3.72538 15.9515C4.07066 16.3553 4.17196 16.5505 4.17196 16.8122C4.17196 16.9082 3.95966 17.8076 3.70021 18.8108C3.44076 19.8139 3.2391 20.6453 3.25208 20.6582C3.26502 20.6712 4.42124 20.3085 5.82144 19.8521C8.67037 18.9236 8.39165 18.9766 9.30477 19.1907C10.2538 19.4133 10.8125 19.4724 11.9766 19.4733C12.5907 19.4738 13.2364 19.4489 13.4766 19.4154C16.1479 19.0432 18.3385 17.9884 19.9514 16.2978C21.0103 15.188 21.6839 13.9348 21.9935 12.4991C22.1411 11.8141 22.1411 10.4984 21.9935 9.81338C21.7732 8.79207 21.3349 7.79551 20.7287 6.93779C20.3557 6.41011 19.3942 5.42457 18.8673 5.02983C16.9255 3.57521 14.4521 2.79001 11.9063 2.82005C11.5583 2.82413 11.1997 2.83458 11.1095 2.84321ZM6.89474 10.0649C6.48121 10.2109 6.14071 10.7038 6.14071 11.1563C6.14071 11.7743 6.69458 12.3281 7.31258 12.3281C7.59571 12.3281 7.92365 12.1883 8.13412 11.9778C9.01612 11.0958 8.07749 9.64711 6.89474 10.0649ZM11.5822 10.0649C11.1687 10.2109 10.8282 10.7038 10.8282 11.1563C10.8282 11.4394 10.968 11.7673 11.1786 11.9778C11.637 12.4363 12.3631 12.4363 12.8216 11.9778C13.7036 11.0958 12.765 9.64711 11.5822 10.0649ZM16.2697 10.0649C15.8562 10.2109 15.5157 10.7038 15.5157 11.1563C15.5157 11.7743 16.0696 12.3281 16.6876 12.3281C16.9707 12.3281 17.2986 12.1883 17.5091 11.9778C18.3911 11.0958 17.4525 9.64711 16.2697 10.0649ZM0.0185996 11.1328C0.0186465 11.4938 0.0260058 11.6352 0.0349121 11.4472C0.0438652 11.2591 0.0437715 10.9638 0.0348184 10.7909C0.0258184 10.618 0.0185059 10.7719 0.0185996 11.1328Z" fill="#202126"/>
</g>
<defs>
<clipPath id="clip0_14_5171">
<rect width="24" height="24" fill="white"/>
</clipPath>
</defs>
</svg>
