<svg width="18" height="18" viewBox="0 0 18 18" fill="none" xmlns="http://www.w3.org/2000/svg">
<g clip-path="url(#clip0_73_10251)">
<path fill-rule="evenodd" clip-rule="evenodd" d="M8.21537 1.3964C5.82172 1.60339 3.52958 2.73057 2.1482 4.38004C1.16097 5.55885 0.632674 6.88963 0.573008 8.34781C0.511482 9.85221 1.00425 11.3498 1.96472 12.5772L2.13043 12.789L1.67827 14.5383C1.42958 15.5005 1.22611 16.3223 1.22611 16.3647C1.22611 16.7142 1.54798 17.0304 1.90379 17.0304C1.9527 17.0304 3.02572 16.693 4.28834 16.2807L6.58394 15.5309L7.00123 15.6174C8.21202 15.8684 9.45826 15.8963 10.6558 15.6993C13.203 15.2803 15.39 13.9006 16.6033 11.9474C17.0863 11.1697 17.4547 10.0979 17.5186 9.28467C17.5297 9.14249 17.5516 9.01835 17.5671 9.00878C17.5826 8.99919 17.595 8.78679 17.5948 8.53677C17.5944 8.231 17.5837 8.09849 17.5621 8.13199C17.5387 8.16811 17.5297 8.13969 17.5293 8.02843C17.5288 7.84017 17.4507 7.37549 17.3599 7.01968C17.2484 6.58263 17.1356 6.27952 16.9152 5.82437C16.352 4.6618 15.4881 3.69572 14.3147 2.91667C12.5676 1.75666 10.3735 1.20977 8.21537 1.3964ZM8.43119 2.70842C7.28927 2.81786 6.35407 3.06579 5.45832 3.49653C3.60459 4.38794 2.36727 5.86571 1.98311 7.64709C1.87769 8.13597 1.87892 9.06271 1.98563 9.55972C2.17811 10.4562 2.58787 11.2769 3.2008 11.9935C3.44538 12.2795 3.51713 12.4177 3.51713 12.6031C3.51713 12.6712 3.36675 13.3082 3.18297 14.0188C2.99919 14.7293 2.85635 15.3182 2.86555 15.3274C2.87472 15.3366 3.6937 15.0796 4.68551 14.7564C6.7035 14.0987 6.50607 14.1362 7.15287 14.2879C7.82514 14.4456 8.22085 14.4874 9.04545 14.4881C9.48038 14.4884 9.93775 14.4708 10.108 14.4471C12.0001 14.1834 13.5517 13.4363 14.6943 12.2388C15.4443 11.4527 15.9214 10.565 16.1407 9.54804C16.2453 9.06284 16.2453 8.13083 16.1407 7.64563C15.9847 6.9222 15.6742 6.2163 15.2448 5.60875C14.9806 5.23498 14.2996 4.53689 13.9263 4.25728C12.5509 3.22692 10.7989 2.67074 8.99565 2.69202C8.74911 2.69491 8.49511 2.70232 8.43119 2.70842ZM5.44577 7.82376C5.15285 7.92723 4.91166 8.27632 4.91166 8.59683C4.91166 9.03458 5.30399 9.42691 5.74174 9.42691C5.94229 9.42691 6.17457 9.32787 6.32366 9.17875C6.94841 8.55403 6.28355 7.52786 5.44577 7.82376ZM8.76608 7.82376C8.47316 7.92723 8.23197 8.27632 8.23197 8.59683C8.23197 8.79738 8.33102 9.02967 8.48013 9.17875C8.80489 9.50354 9.31921 9.50354 9.64397 9.17875C10.2687 8.55403 9.60386 7.52786 8.76608 7.82376ZM12.0864 7.82376C11.7935 7.92723 11.5523 8.27632 11.5523 8.59683C11.5523 9.03458 11.9446 9.42691 12.3824 9.42691C12.5829 9.42691 12.8152 9.32787 12.9643 9.17875C13.589 8.55403 12.9242 7.52786 12.0864 7.82376ZM0.575166 8.58023C0.575199 8.8359 0.580412 8.9361 0.586721 8.80289C0.593063 8.66971 0.592996 8.46053 0.586654 8.33805C0.580279 8.21559 0.5751 8.32457 0.575166 8.58023Z" fill="white"/>
</g>
<defs>
<clipPath id="clip0_73_10251">
<rect width="17" height="17" fill="white" transform="translate(0.562012 0.694489)"/>
</clipPath>
</defs>
</svg>
