<svg width="24" height="24" viewBox="0 0 24 24" fill="none" xmlns="http://www.w3.org/2000/svg">
<g clip-path="url(#clip0_14_4945)">
<path fill-rule="evenodd" clip-rule="evenodd" d="M13.875 4.99506C13.8105 5.00608 13.6102 5.03894 13.4297 5.06805C12.7553 5.17689 11.8165 5.56356 11.2969 5.94658C10.6694 6.40909 10.1138 7.01772 9.74901 7.64233L9.55847 7.96862L9.38179 7.87848C9.09379 7.73158 8.48878 7.55556 8.06672 7.49589C6.47198 7.27047 4.80904 8.07522 3.92076 9.50228C3.76134 9.7584 3.49589 10.409 3.42295 10.7225C3.3915 10.8578 3.35198 11.1623 3.3352 11.3992L3.30469 11.83L2.97656 11.8862C1.60856 12.121 0.491623 13.1533 0.111607 14.534C0.0525918 14.7484 0.028498 15.0057 0.028498 15.4219C0.028498 15.838 0.0525918 16.0953 0.111607 16.3098C0.510045 17.7575 1.68919 18.7932 3.1574 18.9853C3.41864 19.0195 6.20081 19.0308 11.9766 19.0212L20.4141 19.0073L20.7693 18.9061C21.8794 18.5897 22.7306 17.9738 23.3332 17.0507C23.6124 16.6229 23.7879 16.1859 23.9068 15.6218L23.9934 15.211L24.0049 15.4922C24.0154 15.7497 24.018 15.7557 24.0348 15.5638C24.0652 15.2186 23.9629 14.1592 23.8605 13.7578C23.677 13.0394 23.2228 12.2566 22.7024 11.7619C21.9917 11.0863 21.0928 10.6731 20.1808 10.6029L19.7578 10.5703L19.7272 10.1352C19.6651 9.25319 19.4902 8.5937 19.1348 7.90244C18.3822 6.43834 17.0374 5.42172 15.4143 5.08994C15.0548 5.01648 14.0956 4.95733 13.875 4.99506ZM13.6736 6.44626C12.4087 6.68608 11.2968 7.55083 10.7757 8.70011C10.6704 8.93228 10.2656 10.2016 10.2656 10.2996C10.2656 10.3232 10.0911 10.1768 9.54028 9.69076C8.94473 9.16525 8.41326 8.92886 7.7069 8.87528C6.38278 8.77487 5.10178 9.72348 4.80609 11.0234C4.68656 11.549 4.71197 12 4.90331 12.75C4.99626 13.1141 5.06315 13.4213 5.05195 13.4324C5.04079 13.4436 4.80126 13.4087 4.51973 13.355C3.35283 13.1321 2.66278 13.2792 2.06353 13.8784C1.63814 14.3038 1.43001 14.8109 1.43001 15.4219C1.43001 16.3971 2.004 17.181 2.96278 17.5151C3.20048 17.5979 3.5708 17.6016 11.7422 17.6016H20.2734L20.6739 17.4581C21.4098 17.1946 21.9611 16.7154 22.2869 16.0561C22.997 14.6189 22.383 12.8897 20.9297 12.2342C20.2618 11.933 19.6735 11.9132 18.6799 12.1587C18.3191 12.2479 18.0163 12.3132 18.007 12.3039C17.9977 12.2946 18.0579 11.9852 18.1408 11.6162C18.3868 10.5212 18.3797 9.86561 18.1136 9.08312C17.6842 7.82092 16.6291 6.83917 15.3516 6.51315C14.8529 6.38589 14.1416 6.35753 13.6736 6.44626ZM0.0163574 15.4219C0.0163574 15.641 0.0244668 15.7307 0.0343105 15.6211C0.0442012 15.5116 0.0442012 15.3322 0.0343105 15.2227C0.0244668 15.1131 0.0163574 15.2027 0.0163574 15.4219Z" fill="#202126"/>
</g>
<defs>
<clipPath id="clip0_14_4945">
<rect width="24" height="24" fill="white"/>
</clipPath>
</defs>
</svg>
