<svg width="24" height="24" viewBox="0 0 24 24" fill="none" xmlns="http://www.w3.org/2000/svg">
<path fill-rule="evenodd" clip-rule="evenodd" d="M4.14844 0.0579507C3.78722 0.187794 3.43795 0.498951 3.2693 0.841185L3.16406 1.0547V12V22.9453L3.27075 23.1619C3.40528 23.4349 3.68883 23.7177 3.97439 23.8637L4.19531 23.9766H12H19.8047L20.0256 23.8637C20.3112 23.7177 20.5947 23.4349 20.7293 23.1619L20.8359 22.9453L20.8478 13.7344L20.8595 4.52345L18.7853 2.26436L16.7109 0.00531006L10.5 0.00634131C6.17963 0.00709131 4.24627 0.0227944 4.14844 0.0579507ZM4.45313 1.31153C4.39097 1.35081 4.38281 2.58962 4.38281 12C4.38281 21.4104 4.39097 22.6492 4.45313 22.6885C4.54847 22.7488 19.4515 22.7488 19.5469 22.6885C19.6089 22.6493 19.6186 21.6283 19.6293 14.0408L19.6414 5.43751H17.9473C16.3091 5.43751 16.248 5.43428 16.0943 5.33922C15.795 5.15429 15.7969 5.16836 15.7969 3.11954V1.26564L10.1602 1.26634C6.68958 1.26681 4.49644 1.28415 4.45313 1.31153ZM17.0625 3.23439V4.17189H17.9378H18.8132L18.7198 4.06642C18.4066 3.71279 17.0945 2.29689 17.08 2.29689C17.0704 2.29689 17.0625 2.71876 17.0625 3.23439ZM6.31758 6.63559C6.05002 6.78081 6.00717 7.1394 6.23077 7.363L6.36778 7.50001H11.7847H17.2016L17.3474 7.36984C17.4563 7.27253 17.4943 7.19701 17.4978 7.07083C17.5035 6.86964 17.3839 6.6692 17.2211 6.60728C17.1486 6.57976 15.0524 6.56322 11.7743 6.56439C7.16278 6.56603 6.42811 6.57559 6.31758 6.63559ZM6.4372 9.68889C6.24666 9.72597 6.09375 9.93058 6.09375 10.1485C6.09375 10.4049 6.25509 10.5776 6.53147 10.6171C6.63877 10.6324 9.07852 10.6387 11.9531 10.6311C17.7048 10.6158 17.3148 10.6374 17.4623 10.3265C17.5037 10.2392 17.5215 10.126 17.5045 10.0583C17.4633 9.89425 17.2756 9.71997 17.1029 9.68542C16.9429 9.65345 6.60192 9.65678 6.4372 9.68889ZM6.23077 12.8402C5.99058 13.0803 6.07313 13.4815 6.38508 13.5902C6.48483 13.625 8.16202 13.6406 11.7975 13.6406C17.6175 13.6406 17.3305 13.6554 17.4584 13.3494C17.5406 13.1525 17.5053 12.9712 17.3556 12.8214L17.2372 12.7031H11.8025H6.36778L6.23077 12.8402ZM6.23934 15.886C6.12117 15.9964 6.09375 16.0591 6.09375 16.2188C6.09375 16.3784 6.12117 16.4411 6.23934 16.5515L6.38494 16.6875H11.7836C17.7796 16.6875 17.3263 16.7123 17.4665 16.3767C17.5232 16.2409 17.5232 16.1966 17.4665 16.0608C17.3263 15.7252 17.7796 15.75 11.7836 15.75H6.38494L6.23934 15.886Z" fill="#202126"/>
</svg>
