<svg width="24" height="24" viewBox="0 0 24 24" fill="none" xmlns="http://www.w3.org/2000/svg">
<path fill-rule="evenodd" clip-rule="evenodd" d="M11.3705 0.0995625C11.2809 0.169969 10.3609 1.96537 8.22352 6.2408C6.56231 9.56377 5.20312 12.3234 5.20312 12.3735C5.20312 12.5243 5.30034 12.6897 5.42142 12.7448C5.4997 12.7805 6.19345 12.7969 7.62441 12.7969C9.27642 12.7969 9.70833 12.8091 9.69014 12.8555C9.67744 12.8877 8.66269 15.2992 7.43512 18.2145C6.20752 21.1297 5.20312 23.5624 5.20312 23.6205C5.20312 23.759 5.44725 24 5.58755 24C5.6482 24 5.74566 23.9665 5.80406 23.9256C5.90006 23.8584 18.5243 8.8995 18.7159 8.62594C18.8312 8.46141 18.8178 8.26664 18.6818 8.1307L18.5668 8.01562H16.1221C14.1642 8.01562 13.682 8.00377 13.7003 7.95605C13.7129 7.92328 14.7453 6.28327 15.9946 4.31152C17.2439 2.33981 18.2905 0.680484 18.3205 0.624187C18.4114 0.453375 18.3862 0.241266 18.2599 0.115078L18.1449 0H14.8209C11.5035 0 11.4968 0.000187509 11.3705 0.0995625Z" fill="#202126"/>
</svg>
