<svg width="24" height="24" viewBox="0 0 24 24" fill="none" xmlns="http://www.w3.org/2000/svg">
<g clip-path="url(#clip0_14_5193)">
<path fill-rule="evenodd" clip-rule="evenodd" d="M11.461 4.76422C11.3837 4.77294 11.0989 4.80341 10.8282 4.83187C8.32375 5.09554 5.66674 6.33083 3.18761 8.38419C2.20371 9.19912 0.619283 10.8343 0.179783 11.4883C0.0246269 11.7193 -0.0221543 11.9776 0.045627 12.2293C0.189768 12.7646 2.60964 15.2594 4.07824 16.3867C8.1408 19.5052 12.6195 20.09 16.9748 18.0707C18.9175 17.1699 20.6784 15.8933 22.3848 14.1485C23.0803 13.4374 23.8053 12.5821 23.9003 12.3606C23.9356 12.2783 23.983 12.1743 24.0057 12.1296C24.0592 12.024 24.0593 11.7994 24.0058 11.8324C23.9832 11.8464 23.9524 11.7967 23.9375 11.7221C23.8738 11.4036 21.9652 9.34063 20.8395 8.3736C19.8906 7.55849 19.2721 7.10301 18.3985 6.57632C16.9523 5.70426 15.4707 5.14846 13.8751 4.87944C13.2078 4.7669 11.9644 4.7076 11.461 4.76422ZM11.0157 6.49616C8.67799 6.80315 6.42335 7.87893 4.17199 9.76162C3.58774 10.2502 1.90596 11.9321 1.93178 12.0019C1.97336 12.1142 3.33311 13.5288 3.85188 13.9994C8.02717 17.7876 12.1735 18.5535 16.6238 16.3587C18.3086 15.5278 19.7533 14.4384 21.3197 12.8176C21.924 12.1923 22.0667 12.0202 22.0317 11.9592C21.9456 11.8089 20.7792 10.5918 20.2501 10.1003C19.4916 9.39552 18.8382 8.87737 18.0248 8.33554C17.3525 7.88783 16.2287 7.29712 15.6329 7.07844C14.0513 6.4979 12.496 6.30173 11.0157 6.49616ZM11.2329 7.80416C9.56599 8.15085 8.31072 9.32244 7.86738 10.9453C7.72047 11.483 7.72047 12.517 7.86738 13.0547C8.28039 14.5665 9.43183 15.7179 10.9454 16.1324C11.4841 16.28 12.5172 16.2798 13.0548 16.1322C14.5732 15.7149 15.7179 14.5661 16.1351 13.0405C16.2762 12.5247 16.2762 11.4753 16.1351 10.9595C15.7176 9.43274 14.5569 8.2693 13.0548 7.87162C12.5683 7.7428 11.6851 7.71008 11.2329 7.80416ZM11.3741 9.49612C10.251 9.76799 9.42199 10.8313 9.42199 12C9.42199 13.9219 11.4582 15.1617 13.1842 14.2908C13.5707 14.0958 14.0959 13.5705 14.2909 13.1841C14.8084 12.1585 14.6228 11.0029 13.81 10.1901C13.152 9.53216 12.2669 9.27997 11.3741 9.49612ZM0.0109863 12C0.0109863 12.0902 0.0206426 12.1271 0.0324082 12.082C0.0442207 12.0369 0.0442207 11.9631 0.0324082 11.918C0.0206426 11.8728 0.0109863 11.9098 0.0109863 12Z" fill="#202126"/>
</g>
<defs>
<clipPath id="clip0_14_5193">
<rect width="24" height="24" fill="white"/>
</clipPath>
</defs>
</svg>
