<svg width="17" height="17" viewBox="0 0 17 17" fill="none" xmlns="http://www.w3.org/2000/svg">
<g clip-path="url(#clip0_14_5194)">
<path fill-rule="evenodd" clip-rule="evenodd" d="M8.20259 3.37064C8.15103 3.37646 7.96118 3.39677 7.78071 3.41574C6.11106 3.59152 4.33971 4.41505 2.68696 5.78396C2.03103 6.32724 0.974745 7.41736 0.681745 7.85336C0.578308 8.00733 0.54712 8.17955 0.592308 8.34733C0.688401 8.70424 2.30165 10.3674 3.28071 11.119C5.98909 13.198 8.97487 13.5878 11.8784 12.2416C13.1736 11.6411 14.3475 10.7901 15.4851 9.6268C15.9487 9.15274 16.4321 8.58255 16.4954 8.43489C16.5189 8.38002 16.5506 8.31071 16.5657 8.28086C16.6014 8.21049 16.6014 8.06074 16.5658 8.08277C16.5507 8.09208 16.5302 8.05899 16.5202 8.00924C16.4777 7.79686 15.2053 6.42158 14.4549 5.77689C13.8223 5.23349 13.4099 4.92983 12.8276 4.57871C11.8634 3.99733 10.8757 3.6268 9.81196 3.44746C9.36709 3.37243 8.53815 3.33289 8.20259 3.37064ZM7.90571 4.52527C6.34721 4.72993 4.84412 5.44711 3.34321 6.70224C2.95371 7.02796 1.83253 8.14921 1.84975 8.19577C1.87746 8.27064 2.78396 9.21368 3.12981 9.52746C5.91334 12.0529 8.67759 12.5635 11.6444 11.1003C12.7677 10.5464 13.7307 9.82008 14.775 8.73955C15.1779 8.32271 15.273 8.20799 15.2497 8.16727C15.1923 8.06708 14.4147 7.25571 14.062 6.92802C13.5563 6.45818 13.1207 6.11274 12.5784 5.75152C12.1302 5.45305 11.381 5.05924 10.9838 4.91346C9.92943 4.52643 8.89259 4.39564 7.90571 4.52527ZM8.0505 5.39727C6.93921 5.62839 6.10237 6.40946 5.80681 7.49136C5.70887 7.84983 5.70887 8.53914 5.80681 8.89761C6.08215 9.90552 6.84978 10.6731 7.85884 10.9495C8.21793 11.0478 8.90671 11.0477 9.26509 10.9493C10.2774 10.6711 11.0405 9.90521 11.3187 8.88818C11.4127 8.54427 11.4127 7.84471 11.3187 7.5008C11.0403 6.48299 10.2665 5.70736 9.26509 5.44224C8.94078 5.35636 8.35196 5.33455 8.0505 5.39727ZM8.14462 6.52524C7.3959 6.70649 6.84321 7.41539 6.84321 8.19449C6.84321 9.47574 8.20068 10.3023 9.35134 9.72168C9.609 9.59168 9.95915 9.24152 10.0892 8.98386C10.4342 8.30015 10.3104 7.52974 9.76856 6.9879C9.3299 6.54927 8.73984 6.38114 8.14462 6.52524ZM0.569214 8.19449C0.569214 8.25464 0.575651 8.27924 0.583495 8.24918C0.59137 8.21911 0.59137 8.16989 0.583495 8.1398C0.575651 8.10971 0.569214 8.13433 0.569214 8.19449Z" fill="white"/>
</g>
<defs>
<clipPath id="clip0_14_5194">
<rect width="16" height="16" fill="white" transform="translate(0.562012 0.194489)"/>
</clipPath>
</defs>
</svg>
