<svg width="24" height="24" viewBox="0 0 24 24" fill="none" xmlns="http://www.w3.org/2000/svg">
<g clip-path="url(#clip0_14_4919)">
<path fill-rule="evenodd" clip-rule="evenodd" d="M11.2488 0.106898C11.1064 0.166523 10.8955 0.28132 10.7801 0.361945C10.6646 0.44257 8.28939 2.79354 5.50174 5.5863C0.811473 10.2852 0.422082 10.6872 0.283426 10.9745C-0.438168 12.4693 0.63452 14.1563 2.30664 14.1563H2.62493V17.904C2.62493 20.4411 2.64152 21.7319 2.67635 21.9001C2.70461 22.0367 2.80272 22.3067 2.89432 22.5C3.10643 22.9478 3.59214 23.448 4.02143 23.6608C4.59063 23.943 4.7575 23.9581 7.13327 23.9432C9.2118 23.9301 9.27818 23.9269 9.4038 23.8331C9.47496 23.7799 9.57668 23.6782 9.62983 23.607C9.72461 23.4801 9.72696 23.4171 9.74993 20.3484L9.77336 17.2191L9.91568 16.9885C10.093 16.7011 10.4552 16.4713 10.798 16.4287C10.9305 16.4122 11.5874 16.4057 12.2577 16.4142L13.4765 16.4297L13.7228 16.5662C13.9575 16.6962 14.1091 16.8512 14.2543 17.1094C14.3084 17.2056 14.3245 17.7861 14.3437 20.3521C14.3666 23.4171 14.369 23.4801 14.4638 23.607C14.5169 23.6782 14.6186 23.7799 14.6898 23.8331C14.8154 23.9269 14.8818 23.9301 16.9603 23.9432C19.3361 23.9581 19.503 23.943 20.0722 23.6608C20.5015 23.448 20.9872 22.9478 21.1993 22.5C21.2909 22.3067 21.389 22.0367 21.4173 21.9001C21.4521 21.7319 21.4687 20.4411 21.4687 17.904V14.1563H21.787C22.6684 14.1563 23.4368 13.6862 23.8157 12.9151C23.9748 12.5914 23.9765 12.5813 23.9765 11.9531C23.9765 10.8841 24.5155 11.5189 18.4983 5.50165C12.5153 -0.481336 13.1147 0.0326483 12.095 0.010992C11.5704 -0.000164246 11.4801 0.0100545 11.2488 0.106898ZM11.6952 1.45249C11.4232 1.58749 1.62213 11.4008 1.52514 11.6352C1.42718 11.8721 1.43458 12.0729 1.55013 12.3116C1.72422 12.6712 1.86855 12.7229 2.77399 12.75C3.625 12.7755 3.68538 12.7939 3.91108 13.0962C4.00661 13.2241 4.00802 13.2746 4.03118 17.4761L4.05461 21.7266L4.18455 21.9476C4.25604 22.0692 4.38785 22.2246 4.47743 22.293C4.79393 22.5344 4.86564 22.5426 6.6679 22.5448L8.34368 22.5469V19.9242C8.34368 18.2034 8.36135 17.2161 8.3951 17.0531C8.57716 16.1737 9.28793 15.4132 10.1952 15.127C10.5056 15.0291 10.6058 15.0235 12.0468 15.0235C13.4878 15.0235 13.588 15.0291 13.8984 15.127C14.8057 15.4132 15.5164 16.1737 15.6985 17.0531C15.7323 17.2161 15.7499 18.2034 15.7499 19.9242V22.5469H17.4081C19.201 22.5469 19.2982 22.5355 19.6246 22.2866C19.7096 22.2218 19.8376 22.0692 19.909 21.9476L20.039 21.7266L20.0624 17.4761C20.0856 13.2746 20.087 13.2241 20.1825 13.0961C20.4082 12.7939 20.4686 12.7755 21.3196 12.75C22.2251 12.7229 22.3694 12.6712 22.5435 12.3116C22.659 12.0729 22.6664 11.8721 22.5685 11.6352C22.4693 11.3955 12.6683 1.58491 12.3953 1.45212C12.1533 1.33441 11.933 1.33451 11.6952 1.45249Z" fill="#202126"/>
</g>
<defs>
<clipPath id="clip0_14_4919">
<rect width="24" height="24" fill="white"/>
</clipPath>
</defs>
</svg>
