<svg width="24" height="24" viewBox="0 0 24 24" fill="none" xmlns="http://www.w3.org/2000/svg">
<g clip-path="url(#clip0_14_4935)">
<path fill-rule="evenodd" clip-rule="evenodd" d="M5.85932 0.371977C4.22221 0.573867 2.79839 0.754336 2.69526 0.773039C2.59214 0.791742 2.34956 0.881836 2.1562 0.973242C1.44665 1.30859 0.883074 2.04813 0.754589 2.81248C0.726417 2.98005 0.543042 4.45662 0.347105 6.09373C-0.0394266 9.32318 -0.0447234 9.42959 0.144464 10.1519C0.268027 10.6237 0.504183 11.1338 0.768605 11.5003C0.883214 11.6591 3.65226 14.4581 6.92207 17.7203C13.3934 24.1767 13.0217 23.8344 13.6958 23.9577C14.0964 24.031 14.5132 23.9671 14.945 23.7661C15.2387 23.6295 15.5123 23.3661 19.4392 19.4392C23.3661 15.5123 23.6294 15.2388 23.7661 14.945C23.967 14.5132 24.0309 14.0965 23.9577 13.6958C23.8344 13.0217 24.1767 13.3935 17.7203 6.9221C14.4581 3.65229 11.6591 0.883242 11.5003 0.768633C11.1343 0.504539 10.6255 0.268899 10.147 0.141867C9.43181 -0.0479296 9.1356 -0.032039 5.85932 0.371977ZM5.97651 1.38255C4.42964 1.56996 3.04828 1.74682 2.90681 1.77555C2.4082 1.87685 1.89782 2.36918 1.78321 2.85935C1.75607 2.97537 1.5742 4.3992 1.37906 6.02341C0.984417 9.30752 0.975464 9.50191 1.19076 10.12C1.25714 10.3106 1.36687 10.5638 1.4346 10.6825C1.61198 10.9935 13.3665 22.7612 13.6171 22.8788C13.8456 22.9859 14.1927 22.9936 14.4272 22.8968C14.6692 22.7969 22.7536 14.7274 22.8787 14.4609C22.9916 14.2202 22.9917 13.8581 22.8788 13.6172C22.8179 13.4872 20.9593 11.6011 16.8212 7.47007C11.1875 1.84591 10.8338 1.50218 10.5373 1.36324C10.0873 1.1524 9.56662 1.03024 9.14479 1.03652C8.94914 1.03943 7.52339 1.19515 5.97651 1.38255ZM4.82807 2.93224C3.90089 3.13137 3.07846 3.85474 2.76445 4.74734C2.62082 5.15566 2.5867 5.91485 2.69362 6.32412C2.83209 6.85432 3.03717 7.2086 3.44526 7.6226C4.02576 8.21154 4.62426 8.45693 5.46089 8.4491C6.51539 8.43926 7.46015 7.83438 7.91751 6.87631C8.13084 6.4294 8.20307 6.12349 8.20307 5.66707C8.20307 3.89651 6.55528 2.56127 4.82807 2.93224ZM4.87068 3.97948C3.612 4.38218 3.2235 5.98174 4.15748 6.91573C5.2731 8.03135 7.16746 7.24741 7.17112 5.66866C7.17206 5.26249 7.07409 4.95016 6.84576 4.63127C6.40411 4.01454 5.59537 3.74763 4.87068 3.97948Z" fill="#202126"/>
</g>
<defs>
<clipPath id="clip0_14_4935">
<rect width="24" height="24" fill="white"/>
</clipPath>
</defs>
</svg>
