<svg width="24" height="24" viewBox="0 0 24 24" fill="none" xmlns="http://www.w3.org/2000/svg">
<g clip-path="url(#clip0_14_5079)">
<path fill-rule="evenodd" clip-rule="evenodd" d="M10.4219 0.0854422C9.96655 0.245286 9.61935 0.606317 9.49255 1.05168C9.45542 1.18222 9.37138 1.616 9.30589 2.01561C9.24036 2.41522 9.17661 2.78713 9.16424 2.84202C9.14755 2.91618 9.05417 2.9743 8.80138 3.06786C8.61416 3.13715 8.24563 3.29047 7.98238 3.40855L7.50369 3.62324L6.78706 3.10729C6.39289 2.82351 5.9998 2.5551 5.91355 2.51085C5.54966 2.32424 4.97591 2.33732 4.57189 2.54155C4.46661 2.59475 3.98525 3.03411 3.48533 3.53338C2.40542 4.61169 2.32419 4.7384 2.32419 5.34374C2.32419 5.83583 2.37074 5.93352 3.0696 6.9088L3.56971 7.60668L3.39472 7.98693C3.29849 8.19608 3.15163 8.55651 3.06842 8.78793C2.98517 9.01935 2.88828 9.22391 2.85313 9.24252C2.81792 9.26113 2.39891 9.34101 1.92195 9.41999C0.946299 9.58161 0.676533 9.68282 0.397439 9.99172C0.302002 10.0974 0.178814 10.2813 0.123689 10.4005C0.0282988 10.6068 0.0235176 10.6854 0.0235176 12.0469V13.4766L0.15383 13.7419C0.295861 14.0311 0.547908 14.2865 0.836658 14.4338C0.943768 14.4885 1.37239 14.5883 1.8583 14.6717C2.3187 14.7508 2.75188 14.8267 2.82092 14.8404C2.9292 14.8619 2.96577 14.9182 3.08628 15.2491C3.16311 15.4601 3.31306 15.8212 3.41952 16.0514C3.52592 16.2817 3.60411 16.4926 3.59324 16.5202C3.58236 16.5478 3.33922 16.8973 3.05286 17.2969C2.45788 18.1272 2.37285 18.3241 2.39849 18.8121C2.42703 19.355 2.52106 19.4959 3.53591 20.5168C4.60002 21.5873 4.74828 21.6813 5.36727 21.6772C5.83255 21.6742 5.91528 21.634 6.88194 20.942L7.59978 20.4281L8.07725 20.6391C8.33989 20.755 8.69188 20.8979 8.85946 20.9566C9.02703 21.0152 9.16996 21.0671 9.17708 21.0718C9.18421 21.0766 9.26267 21.5051 9.35155 22.0239C9.45144 22.6073 9.55011 23.0399 9.61016 23.1576C9.7603 23.452 10.0139 23.7033 10.305 23.8462L10.5704 23.9766H12.0001H13.4298L13.6951 23.8462C13.9972 23.6979 14.267 23.4232 14.3951 23.1337C14.4433 23.0248 14.5553 22.5194 14.6439 22.0106C14.7326 21.5018 14.8121 21.0805 14.8205 21.0744C14.8291 21.0682 15.0048 21.0031 15.211 20.9298C15.4173 20.8564 15.779 20.7073 16.0149 20.5984L16.4437 20.4005L17.1633 20.9153C18.1579 21.6269 18.1689 21.6321 18.6798 21.6321C19.3043 21.6319 19.4256 21.5555 20.4906 20.4905C21.463 19.5181 21.6052 19.3119 21.6449 18.8178C21.6833 18.3398 21.586 18.1135 20.9605 17.2251L20.4029 16.4334L20.599 16.0096C20.7068 15.7766 20.857 15.411 20.9326 15.1972C21.0342 14.9102 21.0948 14.8031 21.164 14.7879C21.2157 14.7766 21.6345 14.7037 22.0948 14.6259C23.0119 14.4709 23.2363 14.3937 23.5227 14.1351C23.7152 13.9611 23.9532 13.5531 23.9532 13.3971C23.9532 13.3506 23.9743 13.3125 24.0001 13.3125C24.0302 13.3125 24.047 12.8437 24.047 12C24.047 11.1562 24.0302 10.6875 24.0001 10.6875C23.9743 10.6875 23.9532 10.6494 23.9532 10.6029C23.9532 10.4494 23.7166 10.0401 23.5308 9.87224C23.2278 9.59849 23.0351 9.53061 22.1217 9.37583C21.6466 9.2953 21.2157 9.21224 21.1641 9.19119C21.0999 9.16504 21.0205 9.01447 20.9121 8.71321C20.8251 8.47133 20.6827 8.13158 20.5957 7.95819C20.5087 7.7848 20.4376 7.616 20.4376 7.5831C20.4376 7.55015 20.6671 7.20172 20.9477 6.80882C21.2283 6.41591 21.4964 6.01518 21.5437 5.91829C21.6804 5.63793 21.6878 5.10149 21.5598 4.7578C21.4648 4.50276 21.3672 4.38871 20.5127 3.53446C19.4023 2.42432 19.3136 2.36718 18.7012 2.36718C18.2068 2.36718 18.1101 2.41297 17.1431 3.10541L16.4502 3.60154L16.0181 3.39993C15.7805 3.28907 15.4173 3.13982 15.211 3.06833C15.0048 2.99685 14.8167 2.92124 14.793 2.90038C14.7694 2.87952 14.6799 2.45619 14.5941 1.9596C14.4192 0.947192 14.3179 0.677005 14.0083 0.397349C13.6085 0.0361766 13.5503 0.0248329 12.0235 0.0118954C10.812 0.00162973 10.6378 0.00964536 10.4219 0.0854422ZM10.8084 1.40043C10.7944 1.42302 10.6966 1.94507 10.591 2.56058C10.3965 3.69435 10.333 3.89432 10.1276 4.02004C10.0744 4.05252 9.77394 4.16352 9.45983 4.26669C9.14567 4.36982 8.62367 4.58765 8.29986 4.75068C7.976 4.91371 7.65388 5.06132 7.58399 5.07866C7.36958 5.13191 7.1345 5.00929 6.26924 4.39279C5.81141 4.06663 5.39277 3.77619 5.33895 3.74736C5.25036 3.69997 5.16575 3.76982 4.4487 4.48241C4.01291 4.91549 3.65633 5.2979 3.65633 5.33216C3.65633 5.36647 3.94494 5.79969 4.29772 6.29493C4.65045 6.79011 4.96705 7.27527 5.00127 7.37296C5.08156 7.6025 5.05564 7.69536 4.73038 8.34374C4.58164 8.64022 4.36335 9.17694 4.24527 9.53643C4.03006 10.1916 3.92244 10.3768 3.70883 10.4593C3.64752 10.4829 3.11422 10.5853 2.52378 10.6868C1.9333 10.7883 1.42981 10.8839 1.40483 10.8994C1.33433 10.9429 1.34488 13.1573 1.4158 13.2012C1.44683 13.2203 1.98814 13.3255 2.61875 13.435C4.02992 13.6799 3.97456 13.6432 4.26205 14.5229C4.36583 14.8407 4.60105 15.4036 4.78475 15.7739C5.08625 16.3817 5.1156 16.4655 5.08681 16.6359C5.06324 16.7755 4.88511 17.0623 4.40249 17.7376C4.04366 18.2398 3.75008 18.689 3.75008 18.736C3.75008 18.8409 5.24469 20.3437 5.34908 20.3437C5.39005 20.3437 5.80635 20.0701 6.27421 19.7356C6.74202 19.4012 7.1871 19.0953 7.26322 19.0559C7.51358 18.9265 7.70235 18.9658 8.35869 19.2839C8.93985 19.5655 9.42191 19.7524 9.87688 19.8724C10.1041 19.9323 10.3483 20.1208 10.4104 20.2842C10.434 20.3462 10.5282 20.8543 10.6197 21.4133C10.7112 21.9723 10.8056 22.4771 10.8296 22.5351C10.873 22.6404 10.8755 22.6406 12.0001 22.6406C13.1247 22.6406 13.1272 22.6404 13.1706 22.5351C13.1945 22.4771 13.2896 21.9687 13.3819 21.4053C13.4741 20.8419 13.5785 20.325 13.6138 20.2567C13.7248 20.042 13.8441 19.973 14.4418 19.778C14.7617 19.6736 15.3209 19.4417 15.6843 19.2628C16.1157 19.0505 16.4014 18.9375 16.5072 18.9375C16.6982 18.9375 16.8178 19.0099 17.8485 19.7496C18.2679 20.0506 18.6474 20.2969 18.6918 20.2969C18.797 20.2969 20.297 18.7992 20.297 18.6942C20.297 18.65 20.0288 18.2384 19.701 17.7796C19.0309 16.8413 18.9376 16.6821 18.9376 16.4762C18.9376 16.392 19.0605 16.0879 19.232 15.7478C19.524 15.169 19.7066 14.7112 19.853 14.1908C19.9358 13.8961 20.1075 13.6568 20.2843 13.5897C20.3463 13.5661 20.8544 13.4719 21.4134 13.3804C21.9724 13.2889 22.4772 13.1945 22.5352 13.1705C22.6405 13.1271 22.6407 13.1246 22.6407 12C22.6407 10.8754 22.6405 10.8729 22.5352 10.8295C22.4772 10.8055 21.9684 10.7104 21.4044 10.6181C20.8405 10.5257 20.3342 10.4271 20.2794 10.3989C20.0478 10.2798 19.9703 10.1494 19.7803 9.55949C19.674 9.22911 19.4408 8.66226 19.2622 8.29977C19.0837 7.93733 18.9376 7.58938 18.9376 7.52657C18.9376 7.32285 19.0221 7.17801 19.6644 6.28086C20.0123 5.79496 20.297 5.35916 20.297 5.31247C20.297 5.20625 18.803 3.70311 18.6974 3.70311C18.655 3.70311 18.2645 3.96004 17.8297 4.27405C16.8746 4.96377 16.7108 5.06118 16.5046 5.06193C16.4012 5.0623 16.1128 4.94816 15.6843 4.73732C15.3209 4.55849 14.8126 4.34643 14.5548 4.26613C13.9021 4.06279 13.6874 3.94799 13.5893 3.74999C13.5446 3.65975 13.432 3.13241 13.3391 2.57811C13.2462 2.02382 13.1597 1.52282 13.1467 1.46483L13.1233 1.35936H11.9785C11.3489 1.35936 10.8223 1.37783 10.8084 1.40043ZM11.2501 6.87205C10.0505 7.09011 9.14769 7.54954 8.34866 8.34857C7.3513 9.34597 6.84383 10.5805 6.84383 12.0095C6.84383 14.866 9.1341 17.1562 11.9906 17.1562C14.4028 17.1562 16.376 15.623 17.0278 13.2422C17.1162 12.9192 17.1304 12.7469 17.1304 12C17.1304 11.2513 17.1163 11.0808 17.0268 10.7526C16.5106 8.85721 15.1503 7.49071 13.2716 6.98019C12.9954 6.90515 12.7384 6.87941 12.1407 6.8669C11.7153 6.85804 11.3145 6.86038 11.2501 6.87205ZM11.672 8.18811C11.2325 8.2333 10.7657 8.36947 10.336 8.57779C8.99474 9.22808 8.19767 10.5037 8.19767 12C8.19767 12.6504 8.30258 13.1108 8.57891 13.6732C9.49527 15.538 11.7214 16.3266 13.6137 15.4567C14.8505 14.8883 15.6522 13.7215 15.819 12.2473C15.8503 11.9713 15.7776 11.2885 15.6828 10.9662C15.237 9.4513 13.9902 8.39493 12.4232 8.20452C12.0288 8.15657 11.9874 8.15568 11.672 8.18811ZM0.020752 12.0469C0.020752 12.7816 0.0272207 13.0822 0.0351426 12.7148C0.0430645 12.3474 0.0430645 11.7463 0.0351426 11.3789C0.0272207 11.0115 0.020752 11.3121 0.020752 12.0469Z" fill="#202126"/>
</g>
<defs>
<clipPath id="clip0_14_5079">
<rect width="24" height="24" fill="white"/>
</clipPath>
</defs>
</svg>
