<svg width="24" height="24" viewBox="0 0 24 24" fill="none" xmlns="http://www.w3.org/2000/svg">
<path fill-rule="evenodd" clip-rule="evenodd" d="M21.0468 3.26747C20.0714 3.62377 1.94916 10.5803 1.85161 10.6359C1.41567 10.8844 1.38577 11.5189 1.79723 11.7886C1.91522 11.8659 6.67027 13.5 6.77723 13.5C6.81023 13.5 9.39633 11.935 12.5241 10.0223C15.6518 8.10962 18.2658 6.53616 18.333 6.5258C18.5468 6.49285 18.5395 6.63722 18.316 6.86579C18.2066 6.97772 16.2398 8.79465 13.9452 10.9034C11.3867 13.2548 9.76847 14.7747 9.76069 14.8336C9.75375 14.8865 9.67645 15.9106 9.58898 17.1094C9.41714 19.4644 9.41677 19.4515 9.66469 19.5905C9.75708 19.6423 9.82209 19.649 9.90989 19.6156C9.97561 19.5907 10.6412 18.9729 11.3889 18.2429C12.2934 17.3596 12.7683 16.9272 12.8078 16.9508C12.8404 16.9702 13.9452 17.8028 15.2629 18.801C16.5805 19.7991 17.7283 20.6518 17.8133 20.6958C17.9243 20.7532 18.0443 20.7703 18.2376 20.7563C18.5834 20.7313 18.8568 20.5587 18.9864 20.2836C19.1031 20.0359 22.4999 4.61119 22.4999 4.32891C22.4999 3.73458 21.9802 3.22951 21.3774 3.23808C21.2342 3.2401 21.0855 3.25332 21.0468 3.26747Z" fill="#202126"/>
</svg>
