<svg width="24" height="24" viewBox="0 0 24 24" fill="none" xmlns="http://www.w3.org/2000/svg">
<g clip-path="url(#clip0_95_11946)">
<path d="M22.8252 11.6411L20.3852 8.85111L20.7252 5.16111L17.1152 4.34111L15.2252 1.14111L11.8252 2.60111L8.4252 1.14111L6.5352 4.33111L2.9252 5.14111L3.2652 8.84111L0.825195 11.6411L3.2652 14.4311L2.9252 18.1311L6.5352 18.9511L8.4252 22.1411L11.8252 20.6711L15.2252 22.1311L17.1152 18.9411L20.7252 18.1211L20.3852 14.4311L22.8252 11.6411ZM9.9152 16.3611L6.1152 12.5511L7.5952 11.0711L9.9152 13.4011L15.7652 7.53111L17.2452 9.01111L9.9152 16.3611Z" fill="#202126"/>
</g>
<defs>
<clipPath id="clip0_95_11946">
<rect width="24" height="24" fill="white"/>
</clipPath>
</defs>
</svg>
