<svg width="24" height="24" viewBox="0 0 24 24" fill="none" xmlns="http://www.w3.org/2000/svg">
<g clip-path="url(#clip0_14_5038)">
<path fill-rule="evenodd" clip-rule="evenodd" d="M8.80352 5.26871C8.68249 5.30128 8.54538 5.35674 8.49883 5.39199C8.30036 5.54218 8.09692 5.75086 8.03641 5.86636C7.95667 6.01857 7.99656 6.06066 8.29671 6.14096C8.76316 6.26569 9.06349 6.51225 9.23303 6.90966C9.39986 7.30055 9.48447 8.2943 9.451 9.46875C9.41116 10.8662 9.29224 11.4423 8.99135 11.6955C8.82846 11.8326 8.68113 11.8427 8.44469 11.7332C7.78797 11.4291 6.307 9.16599 5.4137 7.10157C4.9555 6.04266 4.79547 5.82352 4.40313 5.71786C4.27361 5.68299 3.59121 5.67094 2.30486 5.68074C0.197643 5.69686 0.171018 5.70057 0.0482051 5.997C-0.0422637 6.21549 0.0172207 6.41466 0.45508 7.35938C2.71624 12.2379 4.91538 15.5157 6.95435 17.0467C8.55892 18.2514 10.1502 18.7642 12.3048 18.7707C13.8344 18.7754 13.9405 18.6935 14.0618 17.4141C14.1729 16.2431 14.5238 15.6068 15.0564 15.6104C15.3847 15.6126 15.6063 15.7716 16.3126 16.512C17.8464 18.1198 18.0422 18.3006 18.4719 18.5063C18.7249 18.6275 18.9887 18.7139 19.2044 18.7463C19.6316 18.8104 23.2127 18.8145 23.4337 18.7511C23.7642 18.6563 23.9567 18.3681 23.9624 17.9593C23.9713 17.3315 23.3803 16.5284 21.6293 14.7891C20.9285 14.093 20.2957 13.4317 20.223 13.3195C20.0328 13.0262 20.0375 12.7282 20.2384 12.3274C20.3222 12.1602 20.888 11.359 21.4958 10.5469C22.7587 8.85933 23.292 8.07891 23.5949 7.47478C23.817 7.03172 24.0509 6.312 24.0415 6.10022C24.0376 6.01097 24.0298 6.00099 24.0136 6.06432C23.9932 6.14368 23.9857 6.14143 23.9357 6.04111C23.9053 5.98003 23.786 5.87728 23.6707 5.81269L23.461 5.69532H21.1407C19.009 5.69532 18.8081 5.70207 18.6685 5.77833C18.4649 5.88961 18.4218 5.96316 18.0264 6.87666C17.4222 8.27241 16.8746 9.29344 16.2336 10.2197C15.8256 10.8091 15.19 11.5494 14.9842 11.675C14.6113 11.9023 14.2544 11.6789 14.0476 11.0887C14.0155 10.9974 13.9878 10.0335 13.9713 8.4375C13.9462 6.0083 13.9423 5.92294 13.8459 5.71444C13.7403 5.48607 13.5778 5.34553 13.3173 5.25718C13.0834 5.17782 9.10333 5.18799 8.80352 5.26871ZM0.0109863 6.1875C0.0109863 6.27774 0.0206426 6.31468 0.0324082 6.26953C0.0442207 6.22439 0.0442207 6.15061 0.0324082 6.10547C0.0206426 6.06033 0.0109863 6.09727 0.0109863 6.1875Z" fill="#202126"/>
</g>
<defs>
<clipPath id="clip0_14_5038">
<rect width="24" height="24" fill="white"/>
</clipPath>
</defs>
</svg>
