<svg width="24" height="24" viewBox="0 0 24 24" fill="none" xmlns="http://www.w3.org/2000/svg">
<path fill-rule="evenodd" clip-rule="evenodd" d="M9.60941 3.91879C6.44202 3.98882 4.10558 4.14571 3.28128 4.3438C2.78249 4.46362 2.36619 4.70788 1.94038 5.1306C1.355 5.71171 1.17959 6.14465 0.989891 7.47655C0.599704 10.2163 0.684829 15.1044 1.15681 17.0625C1.433 18.2083 2.32161 19.0447 3.49363 19.2621C5.15666 19.5705 10.268 19.7473 14.5547 19.6446C18.2955 19.5549 20.1187 19.419 20.9258 19.1696C21.696 18.9317 22.402 18.2603 22.6892 17.4927C23.038 16.5603 23.2247 14.5418 23.2232 11.7187C23.2216 8.60113 23.0083 6.70373 22.5596 5.81399C22.193 5.08719 21.4186 4.50524 20.591 4.33466C19.8643 4.18485 18.5068 4.06944 16.4766 3.98474C15.3066 3.93594 10.7934 3.89258 9.60941 3.91879ZM9.75003 11.7891V15.1499L9.90238 15.0603C9.98614 15.0111 11.2782 14.2675 12.7735 13.4079C14.2688 12.5483 15.5093 11.8301 15.5302 11.8119C15.551 11.7937 14.3276 11.065 12.8114 10.1927C11.2952 9.32034 9.98614 8.56644 9.90238 8.51741L9.75003 8.42821V11.7891Z" fill="#202126"/>
</svg>
